<?xml version="1.0" encoding="UTF-8" standalone="no"?>
<svg
   width="512"
   height="512"
   viewBox="0 0 383.99999 384"
   version="1.1"
   id="svg23"
   sodipodi:docname="rwth_computational_network_science_rz_rgb.svg"
   inkscape:version="1.4 (e7c3feb1, 2024-10-09)"
   xmlns:inkscape="http://www.inkscape.org/namespaces/inkscape"
   xmlns:sodipodi="http://sodipodi.sourceforge.net/DTD/sodipodi-0.dtd"
   xmlns="http://www.w3.org/2000/svg"
   xmlns:svg="http://www.w3.org/2000/svg">
  <defs
     id="defs23" />
  <sodipodi:namedview
     id="namedview23"
     pagecolor="#ffffff"
     bordercolor="#000000"
     borderopacity="0.25"
     inkscape:showpageshadow="2"
     inkscape:pageopacity="0.0"
     inkscape:pagecheckerboard="false"
     inkscape:deskcolor="#d1d1d1"
     inkscape:document-units="pt"
     inkscape:zoom="1.0855884"
     inkscape:cx="207.72146"
     inkscape:cy="138.6345"
     inkscape:window-width="2208"
     inkscape:window-height="1100"
     inkscape:window-x="0"
     inkscape:window-y="25"
     inkscape:window-maximized="0"
     inkscape:current-layer="svg23"
     showborder="true" />
  <path
     fill-rule="nonzero"
     fill="#316bbe"
     fill-opacity="1"
     d="m 260.33954,306.5054 c 0,0 -0.0331,-0.033 -0.0331,-0.033 0,0 0.0331,0.033 0.0331,0.033"
     id="path18"
     style="display:inline;stroke-width:8.47375" />
  <path
     fill-rule="nonzero"
     fill="#ffffff"
     fill-opacity="1"
     d="m 384,350.39583 v -15.37984 c -12.81988,-17.49663 -23.91719,-35.82014 -33.19255,-54.63977 -2.61697,1.58759 -5.46584,2.84444 -8.51346,3.73746 11.3292,23.02015 25.27537,45.27957 41.70601,66.28215 M 316.45548,150.12716 C 338.98137,145.36437 361.441,141.36231 384,138.02175 v -9.36021 c -22.65839,3.30749 -45.21739,7.30956 -67.80953,12.0062 -0.33124,-27.31989 3.24639,-54.242869 10.86543,-79.842872 -4.43892,9.194833 -10.03726,20.241853 -16.82815,32.611883 -2.51761,16.140559 -3.57765,32.611869 -3.27951,49.215489 -9.01035,1.95141 -18.02069,4.03513 -27.03105,6.21808 -2.94825,-5.09354 -8.48033,-8.53333 -14.80746,-8.53333 -9.34162,0 -16.92753,7.47493 -17.09317,16.73591 -46.31055,12.60155 -93.38302,28.37828 -142.34368,47.62789 -1.42442,-1.98449 -3.21325,-3.70439 -5.26708,-5.15969 -4.935815,-3.43979 -10.898555,-4.76279 -16.761905,-3.70439 -5.896481,1.02533 -11.031058,4.29974 -14.476193,9.19483 -0.728799,1.05839 -1.358176,2.14987 -1.888197,3.27442 C 43.362317,202.22017 20.07453,197.62275 0,194.67909 v 9.3602 c 19.412012,2.94367 42.004141,7.47493 65.093166,13.36227 -0.03307,1.4553 0.298168,3.96899 0.265011,3.77054 C 43.991718,230.20156 22.227746,239.89251 0,250.27803 v 10.22015 c 23.387168,-10.94779 46.211182,-21.13487 68.604557,-30.62737 4.041404,6.38345 11.163559,10.4186 18.915118,10.4186 1.29192,0 2.61697,-0.0992 3.9089,-0.36384 6.62526,-1.15762 12.057975,-5.12661 15.304345,-10.48474 17.85507,5.85426 35.08074,12.46924 50.41822,19.71265 0.69564,-3.07597 1.92133,-5.98656 3.61076,-8.59948 -15.6356,-7.37571 -32.99378,-14.05684 -50.98135,-19.94418 0.29818,-2.14987 0.23184,-4.36589 -0.16561,-6.61499 -0.0331,-0.26459 -0.0994,-0.52919 -0.13256,-0.79379 48.46377,-19.08423 95.03933,-34.66252 140.91925,-47.16485 2.98136,5.02739 8.4472,8.43411 14.70808,8.43411 9.27536,0 16.82817,-7.40878 17.09317,-16.60361 8.34782,-2.01757 16.69565,-3.96899 25.0766,-5.78811 1.02692,21.06872 4.27329,42.30283 9.60662,63.37155 2.71637,-1.1907 5.56521,-2.08372 8.54659,-2.61292 0.13254,0 0.23185,-0.033 0.3644,-0.033 -5.26709,-20.87028 -8.41409,-41.87285 -9.34163,-62.67698 m -214.92339,67.73744 c 0,7.73954 -6.260865,13.99069 -14.012415,13.99069 -7.718432,0 -13.979299,-6.25115 -13.979299,-13.99069 0,-7.67338 6.260867,-13.95761 13.979299,-13.95761 7.75155,0 14.012415,6.28423 14.012415,13.95761 M 344.11594,18.323596 C 346.33541,12.50241 348.65425,6.317397 351.07246,9.3e-5 h -9.93787 c -1.9876,5.192761 -3.90892,10.253222 -5.73086,15.049084 3.11387,0.496092 6.06211,1.620678 8.71221,3.274419 m -90.56729,61.585509 h 10.89856 v -53.38293 h -8.01657 c -0.56318,3.00982 -1.85508,5.225842 -3.97515,6.548839 -2.08696,1.35607 -4.93582,2.050641 -8.57971,2.050641 h -0.96066 v 7.078029 h 10.63353 z M 238.8737,63.17319 c 0.23186,-3.406719 0.39748,-6.978811 0.39748,-10.683202 0,-4.729717 -0.26501,-8.73178 -0.82818,-12.039272 -0.53003,-3.307493 -1.42443,-5.986559 -2.68323,-8.037209 -1.29193,-2.083714 -3.04762,-3.572083 -5.20083,-4.49819 -2.15321,-0.926089 -4.83644,-1.356069 -8.08281,-1.356069 -3.97516,0 -7.08904,0.760691 -9.30849,2.348321 -2.25259,1.587597 -3.90891,3.704392 -5.0352,6.317313 -1.12629,2.645994 -1.78882,5.688887 -2.05383,9.128679 -0.23185,3.439792 -0.36441,7.011883 -0.36441,10.683202 0,4.729708 0.26501,8.73178 0.79504,12.039264 0.53002,3.274419 1.42442,5.953494 2.71635,8.004135 1.29193,2.083723 2.98136,3.572092 5.13458,4.49819 2.1532,0.926098 4.83643,1.389151 8.11594,1.389151 4.00827,0 7.08903,-0.793798 9.3416,-2.348322 2.21947,-1.587596 3.90891,-3.704391 5.00208,-6.383458 1.1263,-2.612921 1.82194,-5.655814 2.05383,-9.062533 m -10.50104,-7.24341 c 0,3.439792 -0.0993,6.284239 -0.23185,8.59948 -0.19878,2.315249 -0.53002,4.167444 -0.92754,5.556587 -0.43063,1.389151 -1.02691,2.348322 -1.78882,2.943674 -0.76187,0.562306 -1.72256,0.859944 -2.94823,0.859944 -1.15942,0 -2.08697,-0.231493 -2.88199,-0.661541 -0.7288,-0.46307 -1.35818,-1.322997 -1.78883,-2.546767 -0.46378,-1.256851 -0.76186,-2.910593 -0.96065,-5.060461 -0.16561,-2.149876 -0.26501,-4.895097 -0.26501,-8.268735 v -5.788114 c 0,-3.40671 0.0994,-6.317304 0.26501,-8.59948 0.19878,-2.31524 0.49687,-4.167436 0.92752,-5.556587 0.43065,-1.35607 1.02692,-2.348321 1.7557,-2.943666 0.76188,-0.562305 1.7557,-0.859944 2.94825,-0.859944 1.15941,0 2.12007,0.231493 2.88199,0.661457 0.76187,0.46307 1.35817,1.322996 1.82195,2.546775 0.43063,1.256843 0.76186,2.910593 0.96065,5.060461 0.13256,2.149868 0.23186,4.895089 0.23186,8.268727 z m -26.69978,7.24341 c 0.26501,-3.406719 0.36439,-6.978811 0.36439,-10.683202 0,-4.729717 -0.23185,-8.73178 -0.76187,-12.039272 -0.56317,-3.307493 -1.45755,-5.986559 -2.71635,-8.037209 -1.29193,-2.083714 -3.0145,-3.572083 -5.20084,-4.49819 -2.1532,-0.926089 -4.83643,-1.356069 -8.08281,-1.356069 -3.97516,0 -7.08903,0.760691 -9.30849,2.348321 -2.25258,1.587597 -3.9089,3.704392 -5.00207,6.317313 -1.12629,2.645994 -1.82194,5.688887 -2.05383,9.128679 -0.26501,3.439792 -0.39747,7.011883 -0.39747,10.683202 0,4.729708 0.29817,8.73178 0.79504,12.039264 0.53001,3.274419 1.42442,5.953494 2.74948,8.004135 1.25879,2.083723 2.94823,3.572092 5.10144,4.49819 2.15321,0.926098 4.86957,1.389151 8.11594,1.389151 4.00829,0 7.08903,-0.793798 9.34162,-2.348322 2.25259,-1.587596 3.94203,-3.704391 5.0352,-6.383458 1.09317,-2.612921 1.78882,-5.655814 2.0207,-9.062533 m -10.50104,-7.24341 c 0,3.439792 -0.0661,6.284239 -0.23185,8.59948 -0.19878,2.315249 -0.49686,4.167444 -0.92754,5.556587 -0.43062,1.389151 -0.99378,2.348322 -1.78881,2.943674 -0.7288,0.562306 -1.72257,0.859944 -2.94824,0.859944 -1.1263,0 -2.08696,-0.231493 -2.84886,-0.661541 -0.76187,-0.46307 -1.35818,-1.322997 -1.82195,-2.546767 -0.46379,-1.256851 -0.76188,-2.910593 -0.92753,-5.060461 -0.19878,-2.149876 -0.26502,-4.895097 -0.26502,-8.268735 v -5.788114 c 0,-3.40671 0.0661,-6.317304 0.26502,-8.59948 0.16561,-2.31524 0.46379,-4.167436 0.8944,-5.556587 0.43064,-1.35607 1.02692,-2.348321 1.78882,-2.943666 0.7288,-0.562305 1.72257,-0.859944 2.91512,-0.859944 1.15941,0 2.12007,0.231493 2.88199,0.661457 0.76187,0.46307 1.35817,1.322996 1.82194,2.546775 0.43063,1.256843 0.76187,2.910593 0.96066,5.060461 0.16563,2.149868 0.23185,4.895089 0.23185,8.268727 z m -60.75362,50.27389 h -0.99378 v 7.11111 h 10.66666 v 37.70541 h 10.86542 V 97.604191 h -7.98343 c -0.56319,3.042889 -1.8882,5.225839 -3.97516,6.581909 -2.08695,1.35607 -4.96894,2.01757 -8.57971,2.01757 M 163.147,63.17319 c 0.23185,-3.406719 0.39747,-6.978811 0.39747,-10.683202 0,-4.729717 -0.26501,-8.73178 -0.79504,-12.039272 -0.56317,-3.307493 -1.45755,-5.986559 -2.71635,-8.037209 -1.29192,-2.083714 -3.04761,-3.572083 -5.20082,-4.49819 -2.15321,-0.926089 -4.83644,-1.356069 -8.08283,-1.356069 -3.97515,0 -7.08902,0.760691 -9.30848,2.348321 -2.25259,1.587597 -3.90889,3.704392 -5.0352,6.317313 -1.09317,2.645994 -1.78882,5.688887 -2.05383,9.128679 -0.23185,3.439792 -0.36439,7.011883 -0.36439,10.683202 0,4.729708 0.26501,8.73178 0.79503,12.039264 0.53002,3.274419 1.42443,5.953494 2.71635,8.004135 1.29193,2.083723 3.0145,3.572092 5.13458,4.49819 2.15322,0.926098 4.86957,1.389151 8.11594,1.389151 4.00829,0 7.12216,-0.793798 9.34162,-2.348322 2.25258,-1.587596 3.90889,-3.704391 5.00207,-6.383458 1.12629,-2.612921 1.82194,-5.655814 2.05382,-9.062533 m -10.50102,-7.24341 c 0,3.439792 -0.0994,6.284239 -0.23186,8.59948 -0.19878,2.315249 -0.49686,4.167444 -0.92753,5.556587 -0.43064,1.389151 -1.02692,2.348322 -1.75569,2.943674 -0.79504,0.562306 -1.7557,0.859944 -2.98138,0.859944 -1.12628,0 -2.08694,-0.231493 -2.84886,-0.661541 -0.76187,-0.46307 -1.35817,-1.322997 -1.82194,-2.546767 -0.46379,-1.256851 -0.76187,-2.910593 -0.92754,-5.060461 -0.19878,-2.149876 -0.29817,-4.895097 -0.29817,-8.268735 v -5.788114 c 0,-3.40671 0.0994,-6.317304 0.29817,-8.59948 0.16562,-2.31524 0.46379,-4.167436 0.89441,-5.556587 0.43064,-1.35607 1.02692,-2.348321 1.78882,-2.943666 0.7288,-0.562305 1.72257,-0.859944 2.91511,-0.859944 1.15942,0 2.12008,0.231493 2.88199,0.661457 0.76187,0.46307 1.35818,1.322996 1.82195,2.546775 0.43063,1.256843 0.76186,2.910593 0.96065,5.060461 0.13256,2.149868 0.23187,4.895089 0.23187,8.268727 z m -28.02484,78.35449 c 0.265,-3.40671 0.39746,-6.9788 0.39746,-10.71626 0,-4.72972 -0.26501,-8.73178 -0.79503,-12.0062 -0.52993,-3.30749 -1.42434,-5.98656 -2.71626,-8.03721 -1.29194,-2.08372 -3.0145,-3.572089 -5.16771,-4.498189 -2.18634,-0.9261 -4.86956,-1.38914 -8.08281,-1.38914 -3.97515,0 -7.12216,0.79379 -9.341615,2.381389 -2.25259,1.5876 -3.9089,3.67131 -5.03519,6.31731 -1.09318,2.64599 -1.78883,5.68888 -2.02071,9.12867 -0.26501,3.4398 -0.39748,7.01189 -0.39748,10.65013 0,4.76279 0.26501,8.76486 0.79504,12.07235 0.53002,3.27442 1.45755,5.95348 2.71636,8.00413 1.29192,2.08372 3.01448,3.5721 5.134565,4.49819 2.15321,0.9261 4.86956,1.35607 8.14907,1.35607 3.97515,0 7.08903,-0.76069 9.30848,-2.31525 2.2526,-1.62066 3.90892,-3.73746 5.0352,-6.38345 1.1263,-2.61292 1.78883,-5.65582 2.02072,-9.06254 m -10.50105,-7.2434 c 0,3.40672 -0.0661,6.28423 -0.23185,8.59948 -0.19878,2.31524 -0.49686,4.16744 -0.92753,5.55659 -0.43062,1.35607 -1.02692,2.34831 -1.78882,2.94366 -0.7288,0.56231 -1.72257,0.85996 -2.91511,0.85996 -1.15942,0 -2.12009,-0.2646 -2.88199,-0.69457 -0.76188,-0.42996 -1.35818,-1.28992 -1.82194,-2.51369 -0.43064,-1.22377 -0.76189,-2.91059 -0.92754,-5.06046 -0.19886,-2.14989 -0.26509,-4.89511 -0.26509,-8.23567 v -5.82119 c 0,-3.43979 0.0661,-6.28424 0.26501,-8.63255 0.16562,-2.28218 0.4638,-4.13437 0.8944,-5.52352 0.43063,-1.38915 1.02692,-2.38139 1.78883,-2.94366 0.76187,-0.56231 1.72256,-0.82691 2.94823,-0.82691 1.12629,0 2.08696,0.19847 2.84887,0.62844 0.76187,0.46307 1.35817,1.32299 1.82193,2.54676 0.43064,1.25686 0.76187,2.9106 0.96066,5.06047 0.16563,2.1168 0.23186,4.86201 0.23186,8.26873 z m 10.50105,-63.86768 c 0.26501,-3.406719 0.39747,-6.978811 0.39747,-10.683202 0,-4.729717 -0.26501,-8.73178 -0.79503,-12.039272 -0.53002,-3.307493 -1.42444,-5.986559 -2.71636,-8.037209 -1.29194,-2.083714 -3.0145,-3.572083 -5.16771,-4.49819 -2.18634,-0.926089 -4.86956,-1.356069 -8.08281,-1.356069 -3.97515,0 -7.12216,0.760691 -9.341615,2.348321 -2.25259,1.587597 -3.9089,3.704392 -5.03519,6.317313 -1.09318,2.645994 -1.78883,5.688887 -2.02071,9.128679 -0.26501,3.439792 -0.39748,7.011883 -0.39748,10.683202 0,4.729708 0.26501,8.73178 0.79504,12.039264 0.53002,3.274419 1.45755,5.953494 2.71636,8.004135 1.29192,2.083723 3.01448,3.572092 5.134565,4.49819 2.15321,0.926098 4.86956,1.389151 8.14907,1.389151 3.97515,0 7.08903,-0.793798 9.30848,-2.348322 2.2526,-1.587596 3.90892,-3.704391 5.0352,-6.383458 1.1263,-2.612921 1.78883,-5.655814 2.02072,-9.062533 m -10.50105,-7.24341 c 0,3.439792 -0.0661,6.284239 -0.23185,8.59948 -0.19878,2.315249 -0.49686,4.167444 -0.92753,5.556587 -0.43062,1.389151 -1.02692,2.348322 -1.78882,2.943674 -0.7288,0.562306 -1.72257,0.859944 -2.91511,0.859944 -1.15942,0 -2.12009,-0.231493 -2.88199,-0.661541 -0.76188,-0.46307 -1.35818,-1.322997 -1.82194,-2.546767 -0.43064,-1.256851 -0.76189,-2.910593 -0.92754,-5.060461 -0.19878,-2.149876 -0.26501,-4.895097 -0.26501,-8.268735 v -5.788114 c 0,-3.40671 0.0662,-6.317304 0.26501,-8.59948 0.16563,-2.31524 0.4638,-4.167436 0.89441,-5.556587 0.43054,-1.356027 1.02684,-2.348279 1.78874,-2.943623 0.76187,-0.562306 1.72257,-0.859944 2.94824,-0.859944 1.12629,0 2.08696,0.231492 2.84887,0.661456 0.76187,0.46307 1.35817,1.322997 1.82193,2.546775 0.43064,1.256843 0.76187,2.910594 0.96066,5.060461 0.16563,2.149868 0.23186,4.895089 0.23186,8.268727 z M 75.163601,151.02019 H 86.029025 V 97.604191 h -8.016558 c -0.563178,3.042889 -1.855073,5.225839 -3.942031,6.581909 -2.086958,1.35607 -4.968949,2.01757 -8.579712,2.01757 h -0.993827 v 7.11111 h 10.666662 z m 0,-71.111085 h 10.865424 v -53.38293 h -8.016558 c -0.563178,3.00982 -1.855073,5.225842 -3.942031,6.548839 -2.086958,1.35607 -4.968949,2.050641 -8.579712,2.050641 h -0.993785 v 7.078029 H 75.163601 Z M 59.660496,134.28427 c 0.265011,-3.40671 0.397473,-6.9788 0.397473,-10.71626 0,-4.72972 -0.26501,-8.73178 -0.795031,-12.0062 -0.530021,-3.30749 -1.424425,-5.98656 -2.716352,-8.03721 -1.291928,-2.08372 -3.014495,-3.572089 -5.167702,-4.498189 -2.186339,-0.9261 -4.869567,-1.38914 -8.082815,-1.38914 -3.975156,0 -7.089032,0.79379 -9.34162,2.381389 -2.252587,1.5876 -3.908898,3.67131 -5.035196,6.31731 -1.093166,2.64599 -1.788816,5.68888 -2.020702,9.12867 -0.265011,3.4398 -0.3644,7.01189 -0.3644,10.65013 0,4.76279 0.26501,8.76486 0.795031,12.07235 0.530021,3.27442 1.424433,5.95348 2.71636,8.00413 1.258795,2.08372 2.981363,3.5721 5.101445,4.49819 2.153207,0.9261 4.869568,1.35607 8.149073,1.35607 3.975155,0 7.089023,-0.76069 9.308487,-2.31525 2.252588,-1.62066 3.942031,-3.73746 5.035196,-6.38345 1.093166,-2.61292 1.788824,-5.65582 2.020702,-9.06254 m -10.501025,-7.2434 c 0,3.40672 -0.06614,6.28423 -0.231851,8.59948 -0.19878,2.31524 -0.496864,4.16744 -0.927537,5.55659 -0.430632,1.35607 -0.993785,2.34831 -1.788816,2.94366 -0.728799,0.56231 -1.722567,0.85996 -2.915113,0.85996 -1.159423,0 -2.120083,-0.2646 -2.881991,-0.69457 -0.761872,-0.42996 -1.358175,-1.28992 -1.821948,-2.51369 -0.463789,-1.22377 -0.761872,-2.91059 -0.927535,-5.06046 -0.19878,-2.14987 -0.265011,-4.89509 -0.265011,-8.23565 V 122.675 c 0,-3.43979 0.06614,-6.28424 0.265011,-8.63255 0.16562,-2.28218 0.463789,-4.13438 0.894412,-5.52352 0.43063,-1.38915 1.026916,-2.38139 1.788824,-2.94366 0.761872,-0.56231 1.722558,-0.82691 2.948238,-0.82691 1.126289,0 2.120082,0.19847 2.848857,0.62843 0.761872,0.46307 1.358184,1.323 1.821948,2.54677 0.463789,1.25685 0.761872,2.91059 0.960661,5.06047 0.165621,2.1168 0.231851,4.86201 0.231851,8.26873 z M 59.660454,63.17319 c 0.26501,-3.406719 0.397473,-6.978811 0.397473,-10.683202 0,-4.729717 -0.265011,-8.73178 -0.795032,-12.039272 -0.53002,-3.307493 -1.424424,-5.986559 -2.716351,-8.037209 -1.291928,-2.083714 -3.014495,-3.572083 -5.167702,-4.49819 -2.186339,-0.926089 -4.869568,-1.356069 -8.082815,-1.356069 -3.975156,0 -7.089032,0.760691 -9.34162,2.348321 -2.252588,1.587597 -3.908899,3.704392 -5.035196,6.317313 -1.093167,2.645994 -1.788816,5.688887 -2.020703,9.128679 -0.26501,3.439792 -0.364399,7.011883 -0.364399,10.683202 0,4.729708 0.26501,8.73178 0.795031,12.039264 0.530021,3.274419 1.424433,5.953494 2.71636,8.004135 1.258795,2.083723 2.981363,3.572092 5.101445,4.49819 2.153207,0.926098 4.869568,1.389151 8.149073,1.389151 3.975155,0 7.089023,-0.793798 9.308487,-2.348322 2.252587,-1.587596 3.942031,-3.704391 5.035196,-6.383458 1.093165,-2.612921 1.788824,-5.655814 2.020702,-9.062533 M 49.15942,55.92978 c 0,3.439792 -0.06614,6.284239 -0.231851,8.59948 -0.19878,2.315249 -0.496864,4.167444 -0.927537,5.556587 -0.430632,1.389151 -0.993785,2.348322 -1.788816,2.943674 -0.728799,0.562306 -1.722567,0.859944 -2.915113,0.859944 -1.159423,0 -2.120083,-0.231493 -2.881991,-0.661541 -0.761872,-0.46307 -1.358175,-1.322997 -1.821948,-2.546767 -0.463789,-1.256851 -0.761872,-2.910593 -0.927535,-5.060461 -0.19878,-2.149876 -0.265011,-4.895097 -0.265011,-8.268735 v -5.788114 c 0,-3.40671 0.06614,-6.317304 0.265011,-8.59948 0.16562,-2.31524 0.463789,-4.167436 0.894412,-5.556587 0.43063,-1.35607 1.026916,-2.348321 1.788824,-2.943666 0.761872,-0.562305 1.722558,-0.859944 2.948238,-0.859944 1.126289,0 2.120082,0.231493 2.848857,0.661457 0.761872,0.46307 1.358184,1.322996 1.821948,2.546775 0.463789,1.256843 0.761872,2.910593 0.960661,5.060461 0.165621,2.149868 0.231851,4.895089 0.231851,8.268727 z m -26.2029,285.56889 c 2.848865,16.17364 18.25259,26.95606 34.451346,24.11162 16.165631,-2.84444 26.964809,-18.25736 24.115941,-34.39792 -2.848856,-16.17363 -18.25259,-26.95606 -34.451345,-24.11162 -16.198755,2.84444 -26.997932,18.25736 -24.115942,34.39792 m 176.49689,9.72403 c 1.75571,9.8894 11.22982,16.50439 21.13459,14.75142 9.93788,-1.75298 16.56314,-11.17933 14.80745,-21.10181 -1.7557,-9.88939 -11.22981,-16.50438 -21.13458,-14.75141 -9.93789,1.75297 -16.56315,11.17932 -14.80746,21.1018 m 132.37268,-76.8992 c 14.01242,0 25.37474,-11.3447 25.37474,-25.33538 0,-13.9907 -11.36232,-25.36847 -25.37474,-25.36847 -14.04555,0 -25.40786,11.37777 -25.40786,25.36847 0,13.99068 11.36231,25.33538 25.40786,25.33538 m -131.57764,-0.23149 c 60.65425,39.78914 106.16978,84.73796 129.65631,109.90797 h 12.58799 c -21.56521,-23.78087 -70.06211,-73.52555 -136.54658,-117.28367 -1.45756,2.77828 -3.37888,5.29199 -5.69772,7.3757"
     id="path19"
     style="display:inline;stroke-width:8.47375" />
  <path
     fill-rule="nonzero"
     fill="#275aad"
     fill-opacity="1"
     d="m 384,383.99995 v -33.60412 c -16.43064,-21.00258 -30.37681,-43.262 -41.70601,-66.24908 0.0331,0 0.0331,0 0.0331,0 -1.35818,0.36384 -2.71636,0.69457 -4.14079,0.95917 -2.1532,0.36384 -4.30641,0.56231 -6.39337,0.56231 -11.52795,0 -22.19461,-5.45736 -29.05175,-14.25529 -15.07248,10.58397 -29.28365,22.42479 -42.40167,35.09249 38.59214,31.12351 67.01451,60.79171 82.15321,77.49454 z M 350.80745,280.37622 c 9.27536,18.81963 20.37267,37.14314 33.19255,54.63977 V 230.99536 c -5.89648,1.81911 -11.69357,3.83668 -17.45756,6.0527 0.62941,1.78605 1.09317,3.63825 1.45756,5.55659 2.71636,15.31369 -4.60455,30.16433 -17.2588,37.80464 0.0331,0 0.0331,-0.033 0.0661,-0.033 m 11.42858,-51.92764 c 7.12214,-2.71214 14.3768,-5.15968 21.76397,-7.27648 V 138.0218 c -22.559,3.34056 -45.01863,7.34263 -67.54452,12.07234 0.92754,20.83721 4.07454,41.83978 9.34162,62.71006 0.0331,-0.033 0.0662,-0.033 0.0994,-0.033 14.54244,-2.34832 28.55487,4.20052 36.33954,15.67751 m -46.04547,-87.74787 c 22.59214,-4.72971 45.15114,-8.73178 67.80953,-12.03927 V 9.3e-5 h -32.92749 c -2.41821,6.317304 -4.73705,12.502317 -6.95652,18.323503 5.36646,3.373644 9.37475,8.930231 10.53417,15.677507 2.25258,12.634625 -6.19462,24.70697 -18.882,26.922992 -2.98136,0.529199 -5.9296,0.46307 -8.71221,-0.132342 0,0 0,0 0,0.03302 -7.61904,25.599998 -11.19668,52.522987 -10.86543,79.875947 M 335.40373,15.049084 C 337.22567,10.253222 339.14699,5.192761 341.13459,0 H 0 v 194.67899 c 20.07453,2.94367 43.362317,7.54109 67.279505,13.62687 0.530021,-1.12454 1.159423,-2.21602 1.888197,-3.27442 3.445135,-4.89509 8.579712,-8.1695 14.476193,-9.19482 5.86335,-1.0584 11.82609,0.2646 16.761895,3.70439 2.05384,1.4553 3.84266,3.20827 5.26709,5.15969 48.96066,-19.24961 96.03313,-35.02635 142.34368,-47.62789 0.16563,-9.29406 7.75155,-16.73592 17.09317,-16.73592 1.8882,0 3.71015,0.29771 5.39958,0.85996 22.06212,-33.2403 37.99587,-63.305414 48.00001,-84.043385 -4.96895,-3.406719 -8.57972,-8.698707 -9.706,-15.082165 -2.25259,-12.667698 6.22774,-24.706967 18.88198,-26.956062 2.61698,-0.46307 5.23396,-0.46307 7.71843,-0.06604 M 60.057969,52.490005 c 0,3.704391 -0.132547,7.276483 -0.397473,10.683202 -0.231853,3.406719 -0.927537,6.449612 -2.020702,9.062533 -1.093165,2.679067 -2.782609,4.795862 -5.035196,6.383458 -2.219464,1.554524 -5.333332,2.348322 -9.308487,2.348322 -3.279505,0 -5.995865,-0.46307 -8.149073,-1.389151 -2.120082,-0.926098 -3.84265,-2.414467 -5.101445,-4.49819 -1.291927,-2.050641 -2.186339,-4.729716 -2.71636,-8.004135 -0.530021,-3.307484 -0.795031,-7.309556 -0.795031,-12.039264 0,-3.671319 0.09939,-7.24341 0.3644,-10.683202 0.231852,-3.439792 0.927536,-6.482685 2.020702,-9.128679 1.126297,-2.612921 2.782608,-4.729716 5.035196,-6.317313 2.252588,-1.587596 5.366464,-2.348321 9.34162,-2.348321 3.213248,0 5.896476,0.429963 8.082815,1.356069 2.153207,0.926107 3.875775,2.414476 5.167702,4.49819 1.291927,2.050649 2.186331,4.729716 2.716352,8.037208 0.53002,3.307493 0.795031,7.309556 0.795031,12.039273 m 0,71.078015 c 0,3.73747 -0.132547,7.30956 -0.397473,10.71627 -0.231853,3.40672 -0.927536,6.44961 -2.020702,9.06253 -1.093166,2.67907 -2.782609,4.76279 -5.035197,6.38346 -2.219464,1.55453 -5.333331,2.34832 -9.308486,2.34832 -3.279505,0 -5.995865,-0.46307 -8.149072,-1.38915 -2.120083,-0.92609 -3.84265,-2.41446 -5.101446,-4.49819 -1.292021,-2.05066 -2.186433,-4.69665 -2.716453,-8.00414 -0.530021,-3.30749 -0.795031,-7.30956 -0.795031,-12.07235 0,-3.63824 0.09939,-7.21033 0.364399,-10.65013 0.231853,-3.43979 0.927536,-6.48268 2.020702,-9.12867 1.126298,-2.646 2.782609,-4.72971 5.035197,-6.31731 2.252588,-1.620679 5.366464,-2.381389 9.341619,-2.381389 3.213249,0 5.896477,0.46307 8.082816,1.38914 2.153207,0.9261 3.875774,2.414469 5.167702,4.498189 1.291927,2.05065 2.18633,4.72972 2.716351,8.03721 0.530021,3.27442 0.795031,7.27648 0.795031,12.0062 M 86.028995,79.909105 H 75.163567 V 42.203684 H 64.496905 v -7.078029 h 0.993785 c 3.610763,0 6.492754,-0.661541 8.579712,-2.050641 2.086958,-1.322997 3.378887,-3.539019 3.942031,-6.548839 h 8.016562 z m 0,71.111085 H 75.163567 V 113.31478 H 64.496905 v -7.07804 h 0.993785 c 3.610763,0 6.492754,-0.69456 8.579712,-2.05064 2.086958,-1.35607 3.378887,-3.53902 3.942031,-6.581909 h 8.016562 z M 125.01864,52.489988 c 0,3.704391 -0.13246,7.276483 -0.39747,10.683202 -0.23185,3.406719 -0.89442,6.449612 -2.02072,9.062533 -1.12628,2.679067 -2.7826,4.795862 -5.0352,6.383458 -2.21945,1.554524 -5.33333,2.348322 -9.30848,2.348322 -3.27951,0 -5.99586,-0.46307 -8.14907,-1.389151 -2.120085,-0.926098 -3.842645,-2.414467 -5.134565,-4.49819 -1.25881,-2.050641 -2.18634,-4.729716 -2.71636,-8.004135 -0.53003,-3.307484 -0.79504,-7.309556 -0.79504,-12.039264 0,-3.671319 0.13255,-7.24341 0.39748,-10.683202 0.23185,-3.439792 0.92753,-6.482685 2.02071,-9.128679 1.12629,-2.612921 2.7826,-4.729716 5.03519,-6.317313 2.219455,-1.587596 5.366465,-2.348321 9.341615,-2.348321 3.21325,0 5.89647,0.429963 8.08281,1.356069 2.15321,0.926107 3.87577,2.414476 5.16771,4.49819 1.29192,2.05065 2.18633,4.729716 2.71635,8.037209 0.53002,3.307492 0.79503,7.309555 0.79503,12.039272 m 0,71.078022 c 0,3.73746 -0.13246,7.30955 -0.39747,10.71626 -0.23185,3.40672 -0.89442,6.44962 -2.02072,9.06254 -1.12628,2.67906 -2.7826,4.76279 -5.0352,6.38345 -2.21945,1.55453 -5.33333,2.34833 -9.30848,2.34833 -3.27951,0 -5.99586,-0.46307 -8.14907,-1.38915 -2.120085,-0.92609 -3.842645,-2.41447 -5.134565,-4.49819 -1.25884,-2.05065 -2.18638,-4.69664 -2.7164,-8.00413 -0.53002,-3.30749 -0.79503,-7.30956 -0.79503,-12.07235 0,-3.63824 0.13255,-7.21033 0.39747,-10.65013 0.23186,-3.43979 0.92754,-6.48268 2.02072,-9.12867 1.12628,-2.646 2.7826,-4.72971 5.03519,-6.31731 2.219455,-1.620679 5.366465,-2.381389 9.341615,-2.381389 3.21324,0 5.89647,0.46307 8.08281,1.38914 2.15321,0.9261 3.87577,2.414469 5.16771,4.498189 1.29192,2.05065 2.18633,4.72972 2.71635,8.03721 0.53001,3.27442 0.79502,7.27648 0.79502,12.0062 m 4.40582,-17.33127 h 0.99378 c 3.61076,0 6.49275,-0.69456 8.57971,-2.05064 2.08696,-1.35607 3.41201,-3.53902 3.97516,-6.581909 h 7.98343 V 151.02019 H 140.09106 V 113.31478 H 129.4244 Z m 34.12007,-53.746752 c 0,3.704391 -0.16562,7.276483 -0.39747,10.683202 -0.23186,3.406719 -0.92754,6.449612 -2.05383,9.062533 -1.09317,2.679067 -2.74949,4.795862 -5.00207,6.383458 -2.21946,1.554524 -5.33333,2.348322 -9.34162,2.348322 -3.24637,0 -5.96272,-0.46307 -8.11594,-1.389151 -2.12008,-0.926098 -3.84265,-2.414467 -5.13458,-4.49819 -1.29192,-2.050641 -2.18633,-4.729716 -2.71635,-8.004135 -0.53002,-3.307484 -0.79503,-7.309556 -0.79503,-12.039264 0,-3.671319 0.13254,-7.24341 0.36439,-10.683202 0.26501,-3.439792 0.96066,-6.482685 2.05384,-9.128679 1.1263,-2.612921 2.7826,-4.729716 5.03519,-6.317313 2.21947,-1.587596 5.33333,-2.348321 9.30848,-2.348321 3.24639,0 5.92962,0.429963 8.08283,1.356069 2.15321,0.926107 3.9089,2.414476 5.20083,4.49819 1.25879,2.05065 2.1532,4.729716 2.71634,8.037209 0.53003,3.307492 0.79504,7.309555 0.79504,12.039272 m 38.49276,0 c 0,3.704391 -0.0994,7.276483 -0.3644,10.683202 -0.23185,3.406719 -0.92753,6.449612 -2.0207,9.062533 -1.09317,2.679067 -2.78261,4.795862 -5.0352,6.383458 -2.25259,1.554524 -5.33333,2.348322 -9.34162,2.348322 -3.24637,0 -5.96273,-0.46307 -8.11594,-1.389151 -2.15321,-0.926098 -3.84265,-2.414467 -5.10144,-4.49819 -1.32506,-2.050641 -2.21947,-4.729716 -2.74948,-8.004135 -0.49687,-3.307484 -0.79504,-7.309556 -0.79504,-12.039264 0,-3.671319 0.13255,-7.24341 0.39747,-10.683202 0.23186,-3.439792 0.92754,-6.482685 2.05383,-9.128679 1.09317,-2.612921 2.74949,-4.729716 5.00207,-6.317313 2.21946,-1.587596 5.33333,-2.348321 9.30849,-2.348321 3.24638,0 5.92961,0.429963 8.08281,1.356069 2.18634,0.926107 3.90891,2.414476 5.20084,4.49819 1.2588,2.05065 2.15321,4.729716 2.71635,8.037209 0.53002,3.307492 0.76187,7.309555 0.76187,12.039272 m 37.23396,0 c 0,3.704391 -0.16563,7.276483 -0.39748,10.683202 -0.23184,3.406719 -0.92753,6.449612 -2.05383,9.062533 -1.09317,2.679067 -2.78261,4.795862 -5.00207,6.383458 -2.25258,1.554524 -5.33333,2.348322 -9.34161,2.348322 -3.27951,0 -5.96273,-0.46307 -8.11594,-1.389151 -2.15322,-0.926098 -3.84265,-2.414467 -5.13458,-4.49819 -1.29193,-2.050641 -2.18633,-4.729716 -2.71635,-8.004135 -0.53003,-3.307484 -0.79504,-7.309556 -0.79504,-12.039264 0,-3.671319 0.13247,-7.24341 0.36441,-10.683202 0.26501,-3.439792 0.92754,-6.482685 2.05383,-9.128679 1.12629,-2.612921 2.78261,-4.729716 5.0352,-6.317313 2.21945,-1.587596 5.33333,-2.348321 9.30849,-2.348321 3.24637,0 5.9296,0.429963 8.08281,1.356069 2.15321,0.926107 3.9089,2.414476 5.20083,4.49819 1.2588,2.05065 2.1532,4.729716 2.68323,8.037209 0.56317,3.307492 0.82818,7.309555 0.82818,12.039272 m 25.17598,27.419117 H 253.54866 V 42.203684 h -10.63354 v -7.078029 h 0.96067 c 3.64389,0 6.49275,-0.661541 8.57971,-2.050641 2.12007,-1.322997 3.41201,-3.539019 3.97515,-6.548839 h 8.01656 z M 228.1408,64.52926 c 0.13255,-2.315241 0.23185,-5.159688 0.23185,-8.59948 v -5.788114 c 0,-3.373638 -0.0993,-6.118859 -0.23185,-8.268727 -0.19878,-2.149868 -0.53002,-3.803618 -0.96066,-5.060461 -0.46379,-1.223778 -1.06004,-2.083722 -1.82195,-2.546775 -0.76188,-0.429964 -1.72257,-0.661456 -2.88199,-0.661456 -1.19254,0 -2.18633,0.297706 -2.94824,0.859943 -0.7288,0.595328 -1.32505,1.587597 -1.7557,2.943666 -0.43063,1.389151 -0.7288,3.241347 -0.92752,5.556588 -0.16561,2.315248 -0.26501,5.192769 -0.26501,8.59948 v 5.788113 c 0,3.373638 0.0994,6.118859 0.26501,8.268735 0.19878,2.149868 0.49685,3.836683 0.96065,5.060462 0.43065,1.256842 1.06005,2.083722 1.78882,2.546767 0.79503,0.429963 1.72257,0.66154 2.88199,0.66154 1.22567,0 2.18633,-0.297706 2.94824,-0.893025 0.76187,-0.562305 1.35817,-1.521442 1.78882,-2.910593 0.39748,-1.389142 0.7288,-3.241338 0.92754,-5.556587 m -37.20083,0 c 0.16562,-2.31524 0.23185,-5.159688 0.23185,-8.59948 v -5.788114 c 0,-3.373638 -0.0661,-6.118859 -0.23185,-8.268726 -0.19878,-2.149868 -0.53002,-3.803619 -0.96066,-5.060462 -0.46379,-1.223778 -1.06004,-2.083722 -1.82195,-2.546775 -0.76188,-0.429963 -1.72257,-0.661456 -2.88199,-0.661456 -1.19254,0 -2.18633,0.297706 -2.91511,0.859944 -0.76188,0.595327 -1.35818,1.587596 -1.78882,2.943666 -0.43064,1.389151 -0.7288,3.241346 -0.8944,5.556587 -0.19878,2.315249 -0.26502,5.192769 -0.26502,8.59948 v 5.788114 c 0,3.373638 0.0661,6.118858 0.26502,8.268735 0.16561,2.149868 0.46378,3.836682 0.92752,5.060461 0.46379,1.256843 1.06005,2.083722 1.82195,2.546767 0.76188,0.429963 1.72257,0.661541 2.84886,0.661541 1.22567,0 2.21946,-0.297706 2.94825,-0.893025 0.79503,-0.562306 1.35817,-1.521443 1.78881,-2.910594 0.43064,-1.389142 0.72881,-3.241338 0.92754,-5.556587 m -38.52588,0 c 0.13254,-2.31524 0.23185,-5.159688 0.23185,-8.59948 v -5.788114 c 0,-3.373638 -0.0994,-6.118858 -0.23185,-8.268726 -0.19878,-2.149868 -0.53002,-3.803619 -0.96065,-5.060461 -0.46379,-1.223779 -1.06005,-2.083723 -1.82195,-2.546776 -0.76188,-0.429963 -1.72257,-0.661456 -2.882,-0.661456 -1.19253,0 -2.18633,0.297706 -2.91511,0.859944 -0.76187,0.595327 -1.35817,1.587596 -1.78882,2.943666 -0.43063,1.389151 -0.7288,3.241347 -0.89441,5.556587 -0.19878,2.315249 -0.29816,5.192769 -0.29816,8.59948 v 5.788114 c 0,3.373638 0.0993,6.118858 0.29816,8.268735 0.16562,2.149868 0.46378,3.836682 0.92753,5.060461 0.46379,1.256843 1.06004,2.083722 1.82195,2.546767 0.76188,0.429963 1.72257,0.661541 2.84885,0.661541 1.22568,0 2.18634,-0.297706 2.98138,-0.893025 0.7288,-0.562306 1.32505,-1.521443 1.75569,-2.910594 0.43063,-1.389142 0.7288,-3.241338 0.92754,-5.556587 M 113.8882,135.64058 c 0.16562,-2.31525 0.23185,-5.19276 0.23185,-8.59948 v -5.78834 c 0,-3.37365 -0.0661,-6.15193 -0.23185,-8.26873 -0.19878,-2.14988 -0.53002,-3.8367 -0.96066,-5.06047 -0.46379,-1.25684 -1.06004,-2.08371 -1.82192,-2.54677 -0.76188,-0.42996 -1.72258,-0.62843 -2.84888,-0.62843 -1.22566,0 -2.18633,0.23149 -2.94824,0.82691 -0.76186,0.5623 -1.35818,1.55451 -1.78882,2.94366 -0.43062,1.38914 -0.7288,3.24134 -0.8944,5.55659 -0.19879,2.31524 -0.265,5.15969 -0.265,8.59948 v 5.82119 c 0,3.34056 0.0661,6.08578 0.265,8.23565 0.16562,2.11679 0.49686,3.83669 0.92753,5.06046 0.46377,1.22377 1.06003,2.08372 1.82194,2.51369 0.76188,0.42997 1.72257,0.69457 2.88199,0.69457 1.19256,0 2.18633,-0.29771 2.91511,-0.85996 0.76187,-0.59532 1.35818,-1.58759 1.78882,-2.94366 0.43063,-1.38915 0.7288,-3.24135 0.92753,-5.55659 m 0,-71.11109 c 0.16562,-2.315241 0.23185,-5.159688 0.23185,-8.59948 v -5.788114 c 0,-3.373638 -0.0661,-6.118859 -0.23185,-8.268727 -0.19878,-2.149868 -0.53002,-3.803618 -0.96066,-5.060461 -0.46379,-1.223778 -1.06004,-2.083722 -1.82192,-2.546775 -0.76188,-0.429964 -1.72258,-0.661456 -2.84888,-0.661456 -1.22566,0 -2.18633,0.297706 -2.94824,0.859943 -0.76186,0.595328 -1.35818,1.587597 -1.78882,2.943666 -0.43062,1.389151 -0.7288,3.241347 -0.8944,5.556588 -0.19879,2.315248 -0.265,5.192769 -0.265,8.59948 v 5.788113 c 0,3.373638 0.0661,6.118859 0.265,8.268735 0.16562,2.149868 0.49686,3.836683 0.92753,5.060462 0.46377,1.256842 1.06003,2.083722 1.82194,2.546767 0.76188,0.429963 1.72257,0.66154 2.88199,0.66154 1.19256,0 2.18633,-0.297706 2.91511,-0.893025 0.76187,-0.562305 1.35818,-1.521442 1.78882,-2.910593 0.43063,-1.389142 0.7288,-3.241338 0.92753,-5.556587 M 48.927543,135.64043 c 0.16562,-2.31525 0.231852,-5.19276 0.231852,-8.59948 v -5.78819 c 0,-3.37365 -0.06614,-6.15193 -0.231852,-8.26873 -0.19878,-2.14988 -0.496863,-3.8367 -0.96066,-5.06047 -0.46379,-1.25684 -1.060042,-2.08371 -1.821949,-2.54677 -0.7288,-0.42996 -1.722567,-0.62843 -2.848857,-0.62843 -1.225679,0 -2.18634,0.23149 -2.948238,0.82691 -0.761873,0.5623 -1.358185,1.55451 -1.788824,2.94366 -0.430631,1.38914 -0.7288,3.24134 -0.894412,5.55659 -0.198779,2.31524 -0.26501,5.15969 -0.26501,8.59948 v 5.82119 c 0,3.34056 0.06614,6.08578 0.26501,8.23565 0.16562,2.11679 0.463789,3.83669 0.927536,5.06046 0.463789,1.22377 1.060042,2.08372 1.821948,2.51369 0.761873,0.42997 1.722568,0.69457 2.88199,0.69457 1.192547,0 2.186331,-0.29771 2.915114,-0.85996 0.795031,-0.59532 1.358175,-1.58759 1.788815,-2.94366 0.430632,-1.38915 0.7288,-3.24135 0.927537,-5.55659 m 0,-71.11109 c 0.16562,-2.315241 0.231852,-5.159688 0.231852,-8.59948 v -5.788114 c 0,-3.373638 -0.06614,-6.118859 -0.231852,-8.268727 -0.19878,-2.149868 -0.496863,-3.803618 -0.96066,-5.060461 -0.46379,-1.223778 -1.060042,-2.083722 -1.821949,-2.546775 -0.7288,-0.429964 -1.722567,-0.661456 -2.848857,-0.661456 -1.225679,0 -2.18634,0.297706 -2.948238,0.859943 -0.761873,0.595328 -1.358185,1.587597 -1.788824,2.943666 -0.430631,1.389151 -0.7288,3.241347 -0.894412,5.556588 -0.198779,2.315248 -0.26501,5.192769 -0.26501,8.59948 v 5.788113 c 0,3.373638 0.06614,6.118859 0.26501,8.268735 0.16562,2.149868 0.463789,3.836683 0.927536,5.060462 0.463789,1.256842 1.060042,2.083722 1.821948,2.546767 0.761873,0.429963 1.722568,0.66154 2.88199,0.66154 1.192547,0 2.186331,-0.297706 2.915114,-0.893025 0.795031,-0.562305 1.358175,-1.521442 1.788815,-2.910593 0.430632,-1.389142 0.7288,-3.241338 0.927537,-5.556587 M 65.093175,217.40164 C 42.004141,211.51422 19.412012,206.98296 0,204.07237 v 46.20566 c 22.227746,-10.38552 43.991718,-20.0434 65.358177,-29.10593 0.03307,0.19847 -0.298169,-2.31524 -0.265011,-3.77054 m 3.511391,12.46925 C 46.211182,239.36331 23.387168,249.55039 0,260.53126 v 89.23614 c 7.950311,-1.85219 15.734992,-3.93591 23.354035,-6.28423 0,0.033 0,0.033 0,0.033 -0.16562,-0.66154 -0.298168,-1.32299 -0.397473,-2.01757 -2.881989,-16.14056 7.917187,-31.55348 24.115942,-34.39792 12.687373,-2.21602 24.910974,3.93591 30.973088,14.48682 30.045548,-14.98294 57.308478,-33.60413 81.821958,-54.17672 -1.39131,-2.48063 -2.3851,-5.22585 -2.91513,-8.13644 -0.59624,-3.47286 -0.49686,-6.87958 0.19878,-10.12092 -15.33754,-7.24336 -32.56321,-13.85835 -50.41828,-19.71261 -3.24638,5.35814 -8.679085,9.32713 -15.304345,10.48475 -1.29193,0.2646 -2.61698,0.36384 -3.9089,0.36384 -7.751559,0 -14.873714,-4.03515 -18.915118,-10.41861 M 26.997932,352.08266 C 18.186334,354.7948 9.209106,357.20927 0,359.29299 v 24.70696 h 188.55486 c 4.50518,-8.07028 9.44099,-16.33902 14.80747,-24.34314 -1.95447,-2.34833 -3.34577,-5.22585 -3.90892,-8.43411 -1.75569,-9.8894 4.86957,-19.34883 14.80746,-21.1018 3.57764,-0.62843 7.08903,-0.19847 10.2029,1.12454 0,0 -0.0331,0 -0.0331,0 6.75776,-8.3018 13.97929,-16.40516 21.59834,-24.27699 -14.07867,-10.98087 -29.3499,-22.12713 -45.78054,-32.87647 -3.51139,3.17519 -7.95031,5.45736 -12.98551,6.35038 -8.01656,1.38915 -15.80124,-0.99224 -21.53209,-5.85426 -25.24224,21.16795 -53.36646,40.31834 -84.37267,55.69817 0,0 0,-0.033 0,-0.033 0.06614,0.29771 0.132547,0.62844 0.165621,0.95917 2.848864,16.14056 -7.950311,31.5204 -24.115943,34.39792 -12.322981,2.18295 -24.18219,-3.57209 -30.409934,-13.52764 M 109.78059,220.60988 c 17.98757,5.88734 35.34575,12.56847 50.98135,19.94418 -0.0331,0 -0.0331,0 -0.0331,0 3.80953,-5.88734 9.97101,-10.22016 17.42444,-11.54316 6.82401,-1.19068 13.51552,0.36384 18.88198,3.86978 20.70393,-21.20103 38.92339,-43.29508 54.72464,-64.82685 -0.53002,-0.66154 -0.92754,-1.25685 -1.35818,-1.9845 -45.87992,12.46925 -92.45548,28.04754 -140.91926,47.13177 0.033,0.23149 0.0994,0.52919 0.13255,0.79379 0.39747,2.2491 0.46379,4.46512 0.16562,6.61499 m 197.1677,-77.95759 c -0.29816,-16.60362 0.76187,-33.07493 3.2795,-49.215489 -8.71221,15.875959 -19.37887,33.901789 -32.03313,52.986019 -0.0661,-0.066 -0.0994,-0.13234 -0.13246,-0.16536 0.69565,0.8269 1.32505,1.68682 1.85507,2.61292 9.01036,-2.18295 18.02071,-4.26667 27.03106,-6.21809 M 295.61905,255.3385 c -1.68945,-9.65788 0.4638,-19.38191 6.09524,-27.41912 3.90892,-5.52351 9.14285,-9.82325 15.20497,-12.50231 0,0 -0.0331,0 -0.0331,0.033 -5.33333,-21.06873 -8.5797,-42.30283 -9.60661,-63.37155 -8.38096,1.81912 -16.72879,3.77054 -25.07661,5.78811 -0.26502,9.19482 -7.81781,16.57053 -17.09317,16.57053 -2.08696,0 -3.97515,-0.33072 -5.83022,-0.99225 -16.03313,21.82946 -34.51761,44.25425 -55.51967,65.78603 2.31884,3.14212 3.97516,6.84651 4.70393,10.94779 1.02691,5.88734 0,11.64238 -2.55073,16.57055 0,-0.033 0.0331,-0.033 0.0331,-0.033 16.76192,11.04702 32.39752,22.42479 46.74121,33.67026 -0.0331,0 -0.0331,0 -0.0661,-0.033 13.84679,-13.56072 28.95238,-26.22841 45.18426,-37.50697 -0.99379,-2.34832 -1.72256,-4.89509 -2.18633,-7.508 M 211.04773,365.11422 C 206.87381,371.29923 202.96492,377.74884 199.2879,384 h 130.61697 c -15.93375,-17.06666 -42.00414,-43.42737 -76.0911,-70.84649 -0.26501,-0.23149 -0.26501,-0.19847 -0.0994,-0.0992 -7.65218,7.77261 -14.90684,15.80981 -21.69772,24.07855 0,0 0,-0.033 0,-0.033 1.65631,2.21601 2.84886,4.862 3.37888,7.7726 1.75569,9.92247 -4.86956,19.38191 -14.80745,21.1018 -3.31263,0.59533 -6.59213,0.2315 -9.54038,-0.85995"
     id="path20"
     style="display:inline;stroke-width:8.47375" />
  <path
     fill-rule="nonzero"
     fill="#87b6e5"
     fill-opacity="1"
     d="m 384,230.99536 v -9.82326 c -7.38717,2.11679 -14.64183,4.56434 -21.76397,7.27648 -7.85094,-11.6093 -22.09524,-18.1912 -36.80331,-15.57829 -9.67288,1.65375 -18.08697,7.04497 -23.71844,15.04909 -5.63146,8.03721 -7.78468,17.76124 -6.09523,27.41912 0.46379,2.646 1.19254,5.15968 2.18633,7.508 -16.23188,11.27856 -31.33747,23.94625 -45.18426,37.50697 2.61697,2.05064 5.20083,4.10129 7.71842,6.15193 13.11802,-12.6677 27.32919,-24.50851 42.40167,-35.09249 6.85714,8.79793 17.5238,14.25529 29.05175,14.25529 2.08696,0 4.24017,-0.19847 6.39337,-0.5623 19.97516,-3.50594 33.32506,-22.59017 29.81367,-42.50128 -0.3644,-1.91834 -0.82819,-3.77053 -1.45756,-5.55658 5.76399,-2.21602 11.56108,-4.23359 17.45756,-6.05271 m -26.79917,17.99276 c 0,13.99069 -11.36232,25.33539 -25.37474,25.33539 -14.04555,0 -25.40786,-11.3447 -25.40786,-25.33539 0,-13.99069 11.36231,-25.36847 25.40786,-25.36847 14.01242,0 25.37474,11.37778 25.37474,25.36847 M 354.65011,34.001103 C 352.43064,21.333414 340.33955,12.899309 327.6853,15.115331 c -12.65424,2.249095 -21.13457,14.288364 -18.88198,26.956062 1.12628,6.383458 4.73705,11.675446 9.706,15.082165 -10.00414,20.737971 -25.93789,50.803082 -48.00001,84.043382 3.0145,1.02532 5.6646,2.84444 7.6853,5.22583 22.52588,-33.93486 38.72464,-64.595319 48.86129,-85.630974 2.78261,0.595327 5.73085,0.66154 8.71221,0.132342 12.68738,-2.216022 21.13458,-14.288367 18.882,-26.922992 M 203.75984,239.23101 c 21.00206,-21.53178 39.48654,-43.95657 55.51967,-65.78603 -2.98137,-1.09147 -5.56522,-2.97674 -7.51967,-5.3912 -15.80125,21.53177 -34.02071,43.62582 -54.72465,64.82685 -5.36645,-3.50595 -12.05797,-5.06046 -18.88198,-3.86978 -14.21119,2.51371 -23.6853,16.04135 -21.20083,30.23049 0.53003,2.97675 1.52381,5.68889 2.91512,8.16951 -24.51347,20.57259 -51.77639,39.19378 -81.821951,54.17672 1.523814,2.64599 2.650103,5.55658 3.31263,8.6987 31.006211,-15.37983 59.130431,-34.53022 84.372671,-55.69817 5.73085,4.86202 13.51553,7.24341 21.53209,5.85426 14.21119,-2.51369 23.71842,-16.04133 21.20083,-30.23047 -0.7288,-4.13437 -2.38509,-7.83876 -4.70393,-10.98088 m -102.22775,-21.3664 c 0,-7.70646 -6.260865,-13.95762 -14.012415,-13.95762 -7.718435,0 -13.979302,6.25116 -13.979302,13.95762 0,7.73953 6.260867,13.99069 13.979302,13.99069 7.75155,0 14.012415,-6.25116 14.012415,-13.99069 M 0,359.25991 c 9.209106,-2.05064 18.186334,-4.46512 26.997932,-7.17726 -1.623195,-2.61292 -2.88199,-5.49044 -3.643897,-8.59948 C 15.734992,345.83149 7.950311,347.91521 0,349.7674 Z m 203.36233,0.39685 c -5.36648,8.00413 -10.30229,16.27287 -14.80747,24.34315 h 10.73293 c 3.67702,-6.25116 7.58591,-12.70077 11.75983,-18.88579 -2.98137,-1.12454 -5.63147,-3.00982 -7.68529,-5.45736 m 42.66666,-52.65527 c -7.61905,7.83875 -14.84058,15.9421 -21.59834,24.24391 2.98136,1.22377 5.63146,3.27442 7.58591,5.88734 6.79089,-8.26873 14.04555,-16.30594 21.69773,-24.07854 -2.5176,-2.01758 -5.10145,-4.03515 -7.6853,-6.05271"
     id="path21"
     style="display:inline;stroke-width:8.47375" />
</svg>
