<?xml version="1.0" encoding="UTF-8" standalone="no"?>
<svg
   viewBox="0 0 36 36"
   aria-hidden="true"
   role="img"
   preserveAspectRatio="xMidYMid meet"
   version="1.1"
   id="svg1"
   xmlns="http://www.w3.org/2000/svg"
   xmlns:svg="http://www.w3.org/2000/svg">
  <path
     fill="#3070b6"
     d="m 36,20.917 c 0,0 -3.118809,-0.365715 -3.348809,-0.865715 -0.23,-0.5 2.931809,-5.634285 2.931809,-5.634285 0,0 -5.309809,1.390809 -5.598809,0.931809 C 29.696191,14.890809 30,11.25 30,11.25 c 0,0 -5.518571,4.692191 -5.917,4.292 C 23.596047,15.096047 25.079476,4.7992382 25.079476,4.7992382 25.079476,4.7992382 21.75,8.209 21.376,8.126 21.002,8.042 18,0 18,0 18,0 14.998,8.042 14.624,8.125 14.25,8.208 10.920524,4.7982382 10.920524,4.7982382 c 0,0 1.438667,10.3415708 0.995476,10.7427618 C 11.518571,15.986953 6,11.25 6,11.25 c 0,0 0.3038091,3.640809 0.015809,4.098809 C 5.7268091,15.806809 0.417,14.417 0.417,14.417 c 0,0 3.1628091,5.134285 2.9318091,5.634285 C 3.1178091,20.551285 0,20.917 0,20.917 c 0,0 8.5640334,5.203492 9.1260334,5.739492 C 9.6880334,27.191492 6.583,29.917 6.583,29.917 c 0,0 3.436144,-0.893017 10.014144,-1.020017 V 36 h 2.805712 v -7.103017 c 6.577,0.127 10.014144,1.020017 10.014144,1.020017 0,0 -3.073525,-2.725508 -2.511525,-3.260508 C 27.467475,26.120492 36,20.917 36,20.917 Z"
     id="path1" />
</svg>
